<?xml version="1.0" encoding="utf-8"?>
<!-- Generator: Adobe Illustrator 24.2.2, SVG Export Plug-In . SVG Version: 6.00 Build 0)  -->
<svg version="1.1" id="Ebene_1" xmlns="http://www.w3.org/2000/svg" xmlns:xlink="http://www.w3.org/1999/xlink" x="0px" y="0px"
	 viewBox="0 0 200 200" style="enable-background:new 0 0 200 200;" xml:space="preserve">
<style type="text/css">
	.st0{fill:#FFFFFF;}
	.st1{fill:#868DC4;}
	.st2{fill:#F8BFB7;}
	.st3{fill:#1D1D1B;}
	.st4{fill:#FB4395;}
	.st5{fill:#1FB9CF;}
</style>
<path class="st0" d="M100,29.4c-44.8,0-81.2,27-81.2,60.4c0,20.7,14,38.9,35.3,49.8l-8.6,31.1l30.5-23.2c7.6,1.7,15.6,2.7,23.9,2.7
	c44.8,0,81.2-27,81.2-60.4C181.2,56.4,144.8,29.4,100,29.4z M116.8,108.5l-16.7,15l-19.7-17.8c-3.4-3.7-6.7-7.4-10.1-11.1
	c-3.6-4.5-5.4-9.5-5.4-14.8c0-5.3,1.8-9.6,5.3-13s8-5.1,13.3-5.1c3.6,0,7,0.9,10.1,2.8c3.4,2.1,5.5,4.8,6.5,8.1
	c3.7-7.3,9.2-10.9,16.5-10.9c4.9,0,9.2,1.6,12.8,4.8c3.8,3.3,5.8,7.4,5.8,12.2C135.2,88.3,129,98.3,116.8,108.5z"/>
</svg>
