<?xml version="1.0" encoding="utf-8"?>
<!-- Generator: Adobe Illustrator 24.2.2, SVG Export Plug-In . SVG Version: 6.00 Build 0)  -->
<svg version="1.1" id="Ebene_1" xmlns="http://www.w3.org/2000/svg" xmlns:xlink="http://www.w3.org/1999/xlink" x="0px" y="0px"
	 viewBox="0 0 300 300" style="enable-background:new 0 0 300 300;" xml:space="preserve">
<style type="text/css">
	.st0{fill:#FFFFFF;}
	.st1{fill:#868DC4;}
	.st2{fill:#F8BFB7;}
	.st3{fill:#1D1D1B;}
	.st4{fill:#FB4395;}
	.st5{fill:#1FB9CF;}
</style>
<g>
	<path class="st1" d="M134.6,145.5c-0.3,0-0.6-0.1-0.8-0.2c-0.2-0.1-0.3-0.3-0.4-0.6s-0.1-0.5-0.1-0.8c0-0.4,0.1-0.7,0.2-1.1
		c0.2-0.3,0.4-0.7,0.6-0.9c0.3-0.3,0.5-0.5,0.9-0.6l0.9,0.6c-0.2,0.1-0.4,0.2-0.6,0.4c-0.2,0.1-0.4,0.3-0.5,0.5s-0.3,0.3-0.3,0.5
		l0.1,0c0,0,0.1-0.1,0.2-0.1c0.1,0,0.2,0,0.3,0c0.2,0,0.3,0,0.5,0.1s0.3,0.2,0.4,0.3s0.2,0.3,0.2,0.6c0,0.3-0.1,0.5-0.2,0.7
		c-0.1,0.2-0.3,0.3-0.5,0.4S134.8,145.5,134.6,145.5z M137.7,145.5c-0.3,0-0.6-0.1-0.8-0.2c-0.2-0.1-0.3-0.3-0.4-0.6
		s-0.1-0.5-0.1-0.8c0-0.4,0.1-0.7,0.2-1.1c0.2-0.3,0.4-0.7,0.6-0.9c0.3-0.3,0.5-0.5,0.9-0.6l0.9,0.6c-0.2,0.1-0.4,0.2-0.6,0.4
		s-0.4,0.3-0.5,0.5c-0.1,0.2-0.3,0.3-0.3,0.5l0.1,0c0,0,0.1-0.1,0.2-0.1s0.2,0,0.3,0c0.2,0,0.3,0,0.5,0.1s0.3,0.2,0.4,0.3
		c0.1,0.2,0.2,0.3,0.2,0.6c0,0.3-0.1,0.5-0.2,0.7c-0.1,0.2-0.3,0.3-0.5,0.4S137.9,145.5,137.7,145.5z"/>
</g>
<path class="st1" d="M255.3,198.4c12.3-14.4,19.4-31.4,19.4-49.6c0-52.5-59.2-95-132.3-95s-132.3,42.5-132.3,95s59.2,95,132.3,95
	c36.9,0,70.3-10.9,94.3-28.4l38,15L255.3,198.4z"/>
</svg>
