<?xml version="1.0" encoding="utf-8"?>
<!-- Generator: Adobe Illustrator 24.2.2, SVG Export Plug-In . SVG Version: 6.00 Build 0)  -->
<svg version="1.1" id="Ebene_1" xmlns="http://www.w3.org/2000/svg" xmlns:xlink="http://www.w3.org/1999/xlink" x="0px" y="0px"
	 viewBox="0 0 200 200" style="enable-background:new 0 0 200 200;" xml:space="preserve">
<style type="text/css">
	.st0{fill:#FFFFFF;}
	.st1{fill:#868DC4;}
	.st2{fill:#F8BFB7;}
	.st3{fill:#1D1D1B;}
	.st4{fill:#FB4395;}
	.st5{fill:#1FB9CF;}
</style>
<g>
	<path class="st1" d="M66.6,146.5c-6.9,0-12.7-1.6-17.2-4.8c-4.5-3.2-7.8-7.4-10-12.5c-2.2-5.2-3.2-10.9-3.2-17.3
		c0-8.4,1.8-16.6,5.5-24.4c3.7-7.8,8.4-14.6,14.4-20.6C62,61,68.4,56.5,75.4,53.5l19.4,14.4c-5.3,2.1-10.1,4.7-14.5,7.9
		C75.9,79,72,82.4,68.7,86.2c-3.3,3.8-5.8,7.6-7.5,11.5l1.4,0.8c0.9-0.7,2.2-1.3,3.7-1.7c1.5-0.4,3.5-0.6,5.9-0.6
		c3.4,0,6.8,0.8,10.3,2.5c3.5,1.7,6.4,4.2,8.7,7.6c2.3,3.4,3.5,7.7,3.5,13c0,6-1.3,11-3.9,14.9c-2.6,3.9-6.1,6.9-10.4,9
		C76.1,145.4,71.5,146.5,66.6,146.5z M135.6,146.5c-7,0-12.7-1.6-17.2-4.8c-4.5-3.2-7.8-7.4-10-12.5c-2.2-5.2-3.2-10.9-3.2-17.3
		c0-8.4,1.8-16.6,5.5-24.4c3.7-7.8,8.4-14.6,14.4-20.6c5.9-5.9,12.3-10.4,19.3-13.4l19.4,14.4c-5.3,2.1-10.1,4.7-14.5,7.9
		c-4.4,3.2-8.3,6.7-11.6,10.4c-3.3,3.8-5.8,7.6-7.5,11.5l1.4,0.8c0.9-0.7,2.2-1.3,3.7-1.7c1.5-0.4,3.5-0.6,5.9-0.6
		c3.4,0,6.8,0.8,10.3,2.5c3.5,1.7,6.4,4.2,8.7,7.6c2.3,3.4,3.5,7.7,3.5,13c0,6-1.3,11-3.9,14.9c-2.6,3.9-6.1,6.9-10.4,9
		C145.1,145.4,140.5,146.5,135.6,146.5z"/>
</g>
</svg>
