<?xml version="1.0" encoding="utf-8"?>
<!-- Generator: Adobe Illustrator 24.2.2, SVG Export Plug-In . SVG Version: 6.00 Build 0)  -->
<svg version="1.1" id="Ebene_1" xmlns="http://www.w3.org/2000/svg" xmlns:xlink="http://www.w3.org/1999/xlink" x="0px" y="0px"
	 viewBox="0 0 100 100" style="enable-background:new 0 0 100 100;" xml:space="preserve">
<style type="text/css">
	.st0{fill:#FFFFFF;}
	.st1{fill:#868DC4;}
	.st2{fill:#F8BFB7;}
	.st3{fill:#1D1D1B;}
	.st4{fill:#FB4395;}
	.st5{fill:#1FB9CF;}
</style>
<path class="st0" d="M50.3,3C24.1,2.9,3.1,23.8,3,50c-0.1,25.8,21,47,46.8,47c0.7,0,1.4,0,2.1,0c0-14.2,0-30.4,0-37.2
	c-2.1,0-4,0-5.9,0c-0.7,0-1.2-0.1-1.2-1c0-3.4,0-6.9,0-10.5c2.3,0,4.6,0,7,0c0-1.2,0-2.3,0-3.4c0.1-3-0.1-6,0.3-8.9
	c0.6-5,3.7-8.1,8.5-9c2.9-0.6,5.9-0.5,8.9-0.7c2-0.1,4.1,0,6.2,0c0,4,0,7.8,0,11.8c-2.3,0-4.6,0-6.8,0c-2.8,0-3.4,0.7-3.5,3.4
	c0,1.9,0,3.9,0,5.8c0,0.2,0,0.4,0.1,0.8c3.4,0,6.7,0,10.4,0c-0.3,3.9-0.6,7.6-1,11.4c-3.1,0-6.2,0-9.4,0c0,6.4,0,21.2,0,34.8
	C83.8,88,97,70.6,97,50.1C97,24.2,76.1,3.1,50.3,3z"/>
</svg>
