<?xml version="1.0" encoding="utf-8"?>
<!-- Generator: Adobe Illustrator 24.2.2, SVG Export Plug-In . SVG Version: 6.00 Build 0)  -->
<svg version="1.1" id="Ebene_1" xmlns="http://www.w3.org/2000/svg" xmlns:xlink="http://www.w3.org/1999/xlink" x="0px" y="0px"
	 viewBox="0 0 100 100" style="enable-background:new 0 0 100 100;" xml:space="preserve">
<style type="text/css">
	.st0{fill:#FFFFFF;}
	.st1{fill:#868DC4;}
	.st2{fill:#F8BFB7;}
	.st3{fill:#1D1D1B;}
	.st4{fill:#FB4395;}
	.st5{fill:#1FB9CF;}
</style>
<g>
	<path class="st0" d="M91,72.1c-1.6,11.5-10.1,19-21.7,19.3c-12.9,0.4-25.7,0.4-38.6,0C18,91,9.1,82.1,8.6,69.4
		c-0.4-12.9-0.4-25.9,0-38.8C9,18,17.8,9.1,30.3,8.7c13.2-0.5,26.5-0.5,39.7,0c12.1,0.5,20.7,9.5,21.4,21.6
		C91.7,36.9,92,64.8,91,72.1z M50,16C50,16,50,16,50,16c-5.5,0-11.1-0.1-16.6,0c-11,0.3-16.8,5.3-17.2,16.2
		c-0.5,12.6-0.3,25.2,0.2,37.7c0.3,8,5.9,13.5,13.9,13.8c13.1,0.4,26.3,0.4,39.4,0c8-0.2,13.6-5.8,13.9-13.8
		c0.5-12.6,0.7-25.3,0.2-37.9c-0.4-10.7-6.2-15.6-17-15.9C61.2,15.8,55.6,16,50,16z"/>
	<path class="st0" d="M71.6,50c0,11.8-9.7,21.6-21.5,21.6c-11.9,0-21.5-9.7-21.6-21.5c0-11.8,9.7-21.6,21.5-21.6
		C61.9,28.5,71.5,38.1,71.6,50z M50,36.2c-7.7,0-13.8,6.1-13.9,13.8c0,7.7,6.2,13.9,13.8,13.9c7.8,0,14-6.1,14-13.9
		C63.8,42.2,57.7,36.2,50,36.2z"/>
	<path class="st0" d="M77.4,27.7c0,2.8-2.3,5.1-5.1,5.1c-2.8,0-5-2.3-5-5.1c0-2.8,2.4-5.1,5.1-5.1C75.1,22.6,77.4,24.9,77.4,27.7z"
		/>
</g>
</svg>
