<?xml version="1.0" encoding="utf-8"?>
<!-- Generator: Adobe Illustrator 24.2.2, SVG Export Plug-In . SVG Version: 6.00 Build 0)  -->
<svg version="1.1" id="Ebene_1" xmlns="http://www.w3.org/2000/svg" xmlns:xlink="http://www.w3.org/1999/xlink" x="0px" y="0px"
	 viewBox="0 0 401.6 170" style="enable-background:new 0 0 401.6 170;" xml:space="preserve">
<style type="text/css">
	.st0{fill:#FFFFFF;}
	.st1{fill:#868DC4;}
	.st2{fill:#F8BFB7;}
	.st3{fill:#1D1D1B;}
	.st4{fill:#FB4395;}
	.st5{fill:#1FB9CF;}
</style>
<path class="st4" d="M94.5,77.9C94.5,77.9,94.5,77.9,94.5,77.9C88.7,62.9,83,48,77.2,33c-3.2-8.3-6.7-9.9-14.9-6.7
	c-10.4,4-20.8,8-31.2,12c-7.6,3-9.3,6.6-6.5,14.2c4.6,12.2,9.4,24.4,14.1,36.6c6.9,18,13.9,36.1,20.9,54.1c2.8,7.1,6.2,8.6,12.9,6.1
	c10.9-4.2,21.8-8.4,32.7-12.6c8.1-3.1,9.5-6.3,6.4-14.4C105.9,107.4,100.2,92.7,94.5,77.9z M56.2,37.3c0.1,0.4,0.3,0.7,0.4,1.1
	c-4.3,1.7-8.6,3.3-13,5c-0.1-0.4-0.3-0.7-0.4-1.1C47.6,40.6,51.9,39,56.2,37.3z M87.9,138.7c-1.9,0.7-3.9-0.2-4.6-2.1
	c-0.7-1.9,0.2-3.9,2.1-4.6c1.9-0.7,3.9,0.2,4.6,2.1C90.7,135.9,89.7,138,87.9,138.7z M105.9,118.7C91,124.5,76.2,130.2,61.1,136
	c-10.2-26.5-20.3-52.8-30.6-79.5C45.2,50.8,60,45.1,75.3,39.2C85.5,65.7,95.6,92,105.9,118.7z"/>
<g>
	<path class="st4" d="M190.2,73.7c-2.9,0-5,0.9-6.5,2.8c-1.5,1.9-2.2,4.6-2.2,8.2c0,3.6,0.7,6.3,2.2,8.2c1.5,1.9,3.6,2.8,6.5,2.8
		c2.8,0,5-0.9,6.4-2.8s2.2-4.6,2.2-8.2c0-3.6-0.7-6.3-2.2-8.2C195.2,74.6,193,73.7,190.2,73.7z"/>
	<path class="st4" d="M265.6,76.6c-0.4-1.1-0.6-2-0.7-2.5c-0.4,1.6-0.9,3.4-1.6,5.4l-2.6,7.6h8.5l-2.7-8
		C266.2,78.6,265.9,77.7,265.6,76.6z"/>
	<path class="st4" d="M92.5,45.4l30.3,78.6h250.3V45.4H92.5z M170.1,99.3h-5.9L149.9,76h-0.2l0.1,1.3c0.2,2.5,0.3,4.8,0.3,6.8v15.2
		h-4.3V70.1h5.8l14.4,23.2h0.1c0-0.3-0.1-1.4-0.2-3.4s-0.1-3.4-0.1-4.5V70.1h4.4V99.3z M200.3,95.8c-2.4,2.6-5.8,4-10.1,4
		c-4.4,0-7.8-1.3-10.2-3.9c-2.4-2.6-3.6-6.3-3.6-11.2c0-4.8,1.2-8.5,3.6-11.1c2.4-2.6,5.8-3.9,10.2-3.9c4.4,0,7.7,1.3,10.1,3.9
		c2.4,2.6,3.6,6.3,3.6,11.1C203.9,89.4,202.7,93.1,200.3,95.8z M228.9,74.2h-8.6v25.2h-4.8V74.2h-8.6v-4.1h22V74.2z M249.9,74.1
		h-11.8v9.1h11v4.1h-11v12h-4.7V70.1h16.5V74.1z M273.3,99.3l-2.9-8.1h-11.2l-2.9,8.1h-5l11-29.4h5.2l11,29.4H273.3z M299.5,99.3
		h-17.2V70.1h4.8v25.2h12.4V99.3z M321.7,99.3h-17.2V70.1h4.8v25.2h12.4V99.3z"/>
</g>
</svg>
