<?xml version="1.0" encoding="utf-8"?>
<!-- Generator: Adobe Illustrator 24.2.2, SVG Export Plug-In . SVG Version: 6.00 Build 0)  -->
<svg version="1.1" id="Ebene_1" xmlns="http://www.w3.org/2000/svg" xmlns:xlink="http://www.w3.org/1999/xlink" x="0px" y="0px"
	 viewBox="0 0 200 200" style="enable-background:new 0 0 200 200;" xml:space="preserve">
<style type="text/css">
	.st0{fill:#FFFFFF;}
	.st1{fill:#868DC4;}
	.st2{fill:#F8BFB7;}
	.st3{fill:#1D1D1B;}
	.st4{fill:#FB4395;}
	.st5{fill:#1FB9CF;}
</style>
<path class="st0" d="M149.2,92.4c-2.2-13.6-8.9-24.6-20-32.8c-6.7-4.9-14.1-8.1-22.3-9c-19.4-2.2-35.2,4.4-47.1,20
	c-5.1,6.6-8.1,14.2-9.1,22.4c-2.2,19.4,4.4,35.2,19.9,47.1c6.6,5.1,14.2,8,22.5,9.2c1.2,0.2,2.4,0.3,3.6,0.5c2.2,0,4.4,0,6.6,0
	c1.4-0.2,2.8-0.3,4.2-0.6c13.6-2.2,24.6-8.9,32.8-20c4.9-6.7,7.9-14.1,9.1-22.3c0.2-1.2,0.3-2.4,0.5-3.6c0-2.2,0-4.4,0-6.6
	C149.6,95.3,149.4,93.8,149.2,92.4z M110.3,127.1c0,0.1-0.2,0.3-0.4,0.4c-2.8,0.9-5.5,2.2-8.4,2.7c-3.2,0.6-6.5,0.4-9.3-1.6
	c-2.4-1.7-3.3-4.1-3.1-7c0.2-3.5,1.3-6.8,2.2-10.1c0.9-3.1,1.7-6.3,2.5-9.5c0.2-1,0.3-2,0.3-3c0-2.4-1.1-3.6-3.5-3.5
	c-1.8,0.1-3.6,0.4-5.4,0.7c0.2-0.9,0.4-1.9,0.7-2.9c0.1-0.2,0.4-0.4,0.6-0.4c3-1.2,6-2.5,9.3-2.8c3.5-0.3,6.9,0,9.5,2.9
	c1.4,1.6,1.8,3.5,1.8,5.6c-0.1,4.5-1.8,8.7-2.9,13c-0.7,2.7-1.3,5.4-1.9,8.1c-0.2,0.7-0.2,1.6-0.1,2.3c0.2,1.8,1,2.6,2.8,2.9
	c1.7,0.3,3.3,0,4.9-0.4c0.5-0.1,0.9-0.3,1.6-0.5C110.9,125.1,110.6,126.1,110.3,127.1z M109.1,82c-0.6,0.4-1.3,0.8-2,1
	c-0.6,0.2-1.3,0.3-2,0.4c-0.2,0-0.4,0.1-0.7,0.1c-0.2,0-0.4,0-0.6,0c-1.8-0.2-3.5-0.9-4.8-2c-0.1-0.1-0.3-0.3-0.4-0.4
	c-0.3-0.3-0.5-0.5-0.7-0.8c-0.3-0.4-0.6-0.9-0.7-1.4c-1.3-3.6,0.3-7.1,3.8-8.8c0.7-0.3,1.4-0.6,2.2-0.7c0.2,0,0.5-0.1,0.7-0.1
	c3-0.1,6,1.5,7.4,4.3C112.8,76.5,111.7,80.1,109.1,82z"/>
</svg>
