<?xml version="1.0" encoding="utf-8"?>
<!-- Generator: Adobe Illustrator 27.5.0, SVG Export Plug-In . SVG Version: 6.00 Build 0)  -->
<svg version="1.1" id="Ebene_1" xmlns="http://www.w3.org/2000/svg" xmlns:xlink="http://www.w3.org/1999/xlink" x="0px" y="0px"
	 viewBox="0 0 50 50" style="enable-background:new 0 0 50 50;" xml:space="preserve">
<style type="text/css">
	.st0{fill:#F8AA12;}
	.st1{fill:#4D8EAB;}
</style>
<path id="Pfad_1" class="st0" d="M43.2,18.1H41c-2-0.1-4-0.8-5.7-1.9c-2.1-1.3-4.5-2.1-7-2.3H16.8c-1.4,0-2.4,1.1-2.4,2.4v2.2
	c-1.5-0.5-2.7-1.8-3-3.4l-0.5-2.3c-0.2-0.9-0.9-1.5-1.8-1.5H7.5c-1.4,0-2.4,1.1-2.5,2.5v27.3c0,1.4,1.1,2.4,2.5,2.4h1.7
	c0.9,0,1.6-0.6,1.8-1.5l0.4-2.3c0.3-1.6,1.5-2.9,3-3.4v2.2c0,1.4,1.1,2.5,2.5,2.5c0,0,0,0,0,0h11.6c2.5-0.2,4.9-0.9,7-2.3
	c1.7-1.1,3.7-1.7,5.7-1.9h2.1c1,0,1.8-0.8,1.8-1.8V19.9C45,18.9,44.2,18.1,43.2,18.1 M9,39.4l-0.4,1.8H7.5c0,0-0.1-27.4-0.1-27.4
	c0,0,0-0.1,0.1-0.1c0,0,0,0,0,0h1.2L9,15.6c0.6,3.2,3.5,5.5,6.7,5.5h1.4c-3.5,3.3-3.7,8.8-0.4,12.4c0.1,0.1,0.3,0.3,0.4,0.4h-1.4
	C12.5,33.9,9.7,36.2,9,39.4 M29.5,27.5c0,3.5-2.9,6.4-6.4,6.4s-6.4-2.9-6.4-6.4c0-3.5,2.9-6.4,6.4-6.4l0,0
	C26.6,21.1,29.5,24,29.5,27.5 M29.4,21.4c1,0.3,1.9,0.9,2.7,1.7c1.2,1.2,1.9,2.8,1.8,4.5c-0.1,2.8-1.9,5.2-4.6,6
	C32.7,30.2,32.7,24.8,29.4,21.4 M42.6,34.5H41c-2.5,0.2-4.9,0.9-7,2.3c-1.7,1.1-3.7,1.7-5.7,1.9H16.8c0,0-0.1,0-0.1-0.1c0,0,0,0,0,0
	v-2.3c0,0,0-0.1,0.1-0.1h10.8c4.8,0,8.6-3.8,8.8-8.6c0-2.3-0.9-4.6-2.5-6.2c-1.7-1.7-4-2.7-6.4-2.7H16.8c0,0-0.1,0-0.1-0.1
	c0,0,0,0,0,0v-2.3c0,0,0-0.1,0.1-0.1l0,0h11.5c2,0.1,4,0.8,5.7,1.9c2.1,1.3,4.5,2.1,7,2.3h1.6L42.6,34.5z"/>
<rect class="st1" width="50" height="5"/>
</svg>
