<?xml version="1.0" encoding="utf-8"?>
<!-- Generator: Adobe Illustrator 27.4.0, SVG Export Plug-In . SVG Version: 6.00 Build 0)  -->
<svg version="1.1" id="Ebene_1" xmlns="http://www.w3.org/2000/svg" xmlns:xlink="http://www.w3.org/1999/xlink" x="0px" y="0px"
	 viewBox="0 0 1785 2000" style="enable-background:new 0 0 1785 2000;" xml:space="preserve">
<style type="text/css">
	.st0{clip-path:url(#SVGID_00000013912635196278576510000016191395780268709046_);}
	.st1{fill:#FFFFFF;}
	.st2{fill:none;stroke:#F3AE3D;stroke-width:5;stroke-miterlimit:10;}
</style>
<g>
	<defs>
		<rect id="SVGID_1_" y="0" width="1785" height="2000"/>
	</defs>
	<clipPath id="SVGID_00000154393564766180681410000004312183501585727642_">
		<use xlink:href="#SVGID_1_"  style="overflow:visible;"/>
	</clipPath>
	<g id="Zeichenfläche_1" style="clip-path:url(#SVGID_00000154393564766180681410000004312183501585727642_);">
		<rect y="0" class="st1" width="1785" height="2000"/>
		<g id="Gruppe_37" transform="translate(1003.734 -463.19)">
			<g id="Gruppe_38">
				<path id="Pfad_36" class="st2" d="M1530.6,567.9l-60.3,0c-5.4,0.1-134.4,3.5-259.7,81.8c-103.4,64.6-212.4,68.1-212.4,68.1h-430
					c-1.5,0-2.7-1.2-2.8-2.7V632c0-1.5,1.3-2.7,2.8-2.7h401.2c176.7,0,323.1-138.4,326.5-308.6c1.7-83.6-31.5-163.2-93.4-224
					c-62.7-61.6-149.7-96.9-238.7-96.9H568.1c-1.5,0-2.7-1.2-2.8-2.7v-83.2c0-1.5,1.3-2.7,2.8-2.7l429,0c1.1,0,110.1,3.5,213.4,68.1
					c125.3,78.4,254.3,81.7,259.7,81.9h60.3L1530.6,567.9z M1038.9,96.9c37.7,11.7,72.1,32.1,100.4,59.6
					c45.1,44.3,69.2,102,68,162.5c-2,101.5-73.9,187.3-170.4,215.3c57.5-56.8,93.1-134.3,93.1-219.7
					C1129.9,230.2,1095.2,153.5,1038.9,96.9z M1041.4,314.6c0,126.5-106.8,229.4-238,229.4s-238-102.9-238-229.4
					s106.8-229.4,238-229.4S1041.4,188.1,1041.4,314.6L1041.4,314.6z M277.9,742.9l-13.3,64.9h-45.2c-1.5,0-2.8-983.7-2.8-983.7
					c0-1.5,1.3-2.7,2.8-2.7h45.2l13.3,64.9C301.5,1.6,407.2,85.3,529.1,85.3h51c-63.5,57.5-103.3,139-103.3,229.4
					S516.6,486.5,580.1,544h-51C407.2,544,301.5,627.7,277.9,742.9z M1551.4-24h-79.6c-6.5-0.2-111.4-4.6-213-68.1
					c-125.3-78.4-254.3-81.7-260.6-81.8h-430c-50.4,0-91.3,39.5-91.3,88v77.6c-56.1-17.9-100-63.6-111.9-121.8l-16.6-81
					c-6.2-30.5-34.2-52.7-66.5-52.7h-62.2c-50.4,0-91.3,39.5-91.3,88v981.1c0,48.5,41,88,91.3,88h62.2c32.3,0,60.3-22.2,66.5-52.7
					l16.6-81c11.9-58.2,55.9-103.9,111.9-121.8v77.6c0,48.5,41,88,91.3,88l430.9,0c5.4-0.1,134.4-3.5,259.7-81.8
					c103.4-64.6,212.4-68.1,212.4-68.1h80.2c37.4,0,67.8-29.3,67.8-65.3V41.4C1619.2,5.3,1588.7-24,1551.4-24z"/>
			</g>
		</g>
		<g id="Gruppe_39" transform="translate(-969.266 1167.81)">
			<g id="Gruppe_38-2">
				<path id="Pfad_36-2" class="st2" d="M1530.6,567.9l-60.3,0c-5.4,0.1-134.4,3.5-259.7,81.8c-103.4,64.6-212.4,68.1-212.4,68.1
					h-430c-1.5,0-2.7-1.2-2.8-2.7V632c0-1.5,1.3-2.7,2.8-2.7h401.2c176.7,0,323.1-138.4,326.5-308.6c1.7-83.6-31.5-163.2-93.4-224
					c-62.7-61.6-149.7-96.9-238.7-96.9H568.1c-1.5,0-2.7-1.2-2.8-2.7v-83.2c0-1.5,1.3-2.7,2.8-2.7l429,0c1.1,0,110.1,3.5,213.4,68.1
					c125.3,78.4,254.3,81.7,259.7,81.9h60.3L1530.6,567.9z M1038.9,96.9c37.7,11.7,72.1,32.1,100.4,59.6
					c45.1,44.3,69.2,102,68,162.5c-2,101.5-73.9,187.3-170.4,215.3c57.5-56.8,93.1-134.3,93.1-219.7
					C1129.9,230.2,1095.2,153.5,1038.9,96.9z M1041.4,314.6c0,126.5-106.8,229.4-238,229.4s-238-102.9-238-229.4
					s106.8-229.4,238-229.4S1041.4,188.1,1041.4,314.6L1041.4,314.6z M277.9,742.9l-13.3,64.9h-45.2c-1.5,0-2.8-983.7-2.8-983.7
					c0-1.5,1.3-2.7,2.8-2.7h45.2l13.3,64.9C301.5,1.6,407.2,85.3,529.1,85.3h51c-63.5,57.5-103.3,139-103.3,229.4
					S516.6,486.5,580.1,544h-51C407.2,544,301.5,627.7,277.9,742.9z M1551.4-24h-79.6c-6.5-0.2-111.4-4.6-213-68.1
					c-125.3-78.4-254.3-81.7-260.6-81.8h-430c-50.4,0-91.3,39.5-91.3,88v77.6c-56.1-17.9-100-63.6-111.9-121.8l-16.6-81
					c-6.2-30.5-34.2-52.7-66.5-52.7h-62.2c-50.4,0-91.3,39.5-91.3,88v981.1c0,48.5,41,88,91.3,88h62.2c32.3,0,60.3-22.2,66.5-52.7
					l16.6-81c11.9-58.2,55.9-103.9,111.9-121.8v77.6c0,48.5,41,88,91.3,88l430.9,0c5.4-0.1,134.4-3.5,259.7-81.8
					c103.4-64.6,212.4-68.1,212.4-68.1h80.2c37.4,0,67.8-29.3,67.8-65.3V41.4C1619.2,5.3,1588.7-24,1551.4-24z"/>
			</g>
		</g>
	</g>
</g>
</svg>
