<svg xmlns="http://www.w3.org/2000/svg" xmlns:xlink="http://www.w3.org/1999/xlink" width="1785" height="2000" viewBox="0 0 1785 2000">
  <defs>
    <clipPath id="clip-Zeichenfläche_1">
      <rect width="1785" height="2000"/>
    </clipPath>
  </defs>
  <g id="Zeichenfläche_1" data-name="Zeichenfläche – 1" clip-path="url(#clip-Zeichenfläche_1)">
    <rect width="1785" height="2000" fill="#fff"/>
    <g id="Gruppe_37" data-name="Gruppe 37" transform="translate(1003.734 -463.19)">
      <g id="Gruppe_38" data-name="Gruppe 38">
        <path id="Pfad_36" data-name="Pfad 36" d="M1402.99,832.31l-60.337.006c-5.434.1-134.395,3.492-259.723,81.85-103.384,64.622-212.351,68.09-212.413,68.108H440.53a2.718,2.718,0,0,1-2.76-2.66V896.468a2.718,2.718,0,0,1,2.76-2.66H841.746c176.668,0,323.143-138.448,326.515-308.624,1.658-83.641-31.5-163.179-93.378-223.961-62.677-61.583-149.7-96.906-238.72-96.906H440.53a2.717,2.717,0,0,1-2.76-2.654V178.51a2.717,2.717,0,0,1,2.76-2.654l428.959-.012c1.089.031,110.055,3.486,213.44,68.12,125.329,78.358,254.29,81.746,259.723,81.856h60.337ZM911.3,361.375a249.7,249.7,0,0,1,100.352,59.632c45.07,44.282,69.237,102.006,68.036,162.543-2.005,101.456-73.859,187.348-170.418,215.265,57.528-56.77,93.074-134.314,93.074-219.748C1002.349,494.65,967.626,417.955,911.3,361.375Zm2.463,217.693c0,126.474-106.769,229.374-238,229.374s-238-102.9-238-229.374,106.769-229.374,238-229.374S913.768,452.587,913.768,579.068ZM150.329,1007.341l-13.305,64.91H91.842c-1.522,0-2.754-983.719-2.754-983.719a2.707,2.707,0,0,1,2.754-2.654h45.182l13.305,64.9C173.95,266.034,279.581,349.694,401.481,349.694h51c-63.512,57.455-103.292,139-103.292,229.374S388.968,750.98,452.474,808.441H401.481C279.581,808.441,173.95,892.1,150.329,1007.341ZM1423.758,240.447h-79.627c-6.5-.208-111.386-4.587-212.994-68.114-125.341-78.352-254.29-81.74-260.621-81.85H440.53c-50.368,0-91.342,39.488-91.342,88.026v77.557c-56.08-17.894-100.024-63.638-111.949-121.839L220.623,53.2C214.373,22.669,186.389.5,154.091.5H91.842C41.474.5.5,39.988.5,88.532V1069.6c0,48.539,40.974,88.032,91.342,88.032h62.25c32.3,0,60.282-22.169,66.532-52.691l16.616-81.042c11.925-58.2,55.869-103.945,111.949-121.833v77.551c0,48.533,40.974,88.032,91.342,88.032l430.883-.012c5.434-.11,134.382-3.492,259.723-81.837,103.378-64.641,212.351-68.1,212.406-68.121h80.215c37.4,0,67.819-29.311,67.819-65.35V305.8C1491.578,269.765,1461.155,240.447,1423.758,240.447Z" transform="translate(127.594 -264.442)" fill="none" stroke="#f3ae3d" stroke-miterlimit="10" stroke-width="5"/>
      </g>
    </g>
    <g id="Gruppe_39" data-name="Gruppe 39" transform="translate(-969.266 1167.81)">
      <g id="Gruppe_38-2" data-name="Gruppe 38">
        <path id="Pfad_36-2" data-name="Pfad 36" d="M1402.99,832.31l-60.337.006c-5.434.1-134.395,3.492-259.723,81.85-103.384,64.622-212.351,68.09-212.413,68.108H440.53a2.718,2.718,0,0,1-2.76-2.66V896.468a2.718,2.718,0,0,1,2.76-2.66H841.746c176.668,0,323.143-138.448,326.515-308.624,1.658-83.641-31.5-163.179-93.378-223.961-62.677-61.583-149.7-96.906-238.72-96.906H440.53a2.717,2.717,0,0,1-2.76-2.654V178.51a2.717,2.717,0,0,1,2.76-2.654l428.959-.012c1.089.031,110.055,3.486,213.44,68.12,125.329,78.358,254.29,81.746,259.723,81.856h60.337ZM911.3,361.375a249.7,249.7,0,0,1,100.352,59.632c45.07,44.282,69.237,102.006,68.036,162.543-2.005,101.456-73.859,187.348-170.418,215.265,57.528-56.77,93.074-134.314,93.074-219.748C1002.349,494.65,967.626,417.955,911.3,361.375Zm2.463,217.693c0,126.474-106.769,229.374-238,229.374s-238-102.9-238-229.374,106.769-229.374,238-229.374S913.768,452.587,913.768,579.068ZM150.329,1007.341l-13.305,64.91H91.842c-1.522,0-2.754-983.719-2.754-983.719a2.707,2.707,0,0,1,2.754-2.654h45.182l13.305,64.9C173.95,266.034,279.581,349.694,401.481,349.694h51c-63.512,57.455-103.292,139-103.292,229.374S388.968,750.98,452.474,808.441H401.481C279.581,808.441,173.95,892.1,150.329,1007.341ZM1423.758,240.447h-79.627c-6.5-.208-111.386-4.587-212.994-68.114-125.341-78.352-254.29-81.74-260.621-81.85H440.53c-50.368,0-91.342,39.488-91.342,88.026v77.557c-56.08-17.894-100.024-63.638-111.949-121.839L220.623,53.2C214.373,22.669,186.389.5,154.091.5H91.842C41.474.5.5,39.988.5,88.532V1069.6c0,48.539,40.974,88.032,91.342,88.032h62.25c32.3,0,60.282-22.169,66.532-52.691l16.616-81.042c11.925-58.2,55.869-103.945,111.949-121.833v77.551c0,48.533,40.974,88.032,91.342,88.032l430.883-.012c5.434-.11,134.382-3.492,259.723-81.837,103.378-64.641,212.351-68.1,212.406-68.121h80.215c37.4,0,67.819-29.311,67.819-65.35V305.8C1491.578,269.765,1461.155,240.447,1423.758,240.447Z" transform="translate(127.594 -264.442)" fill="none" stroke="#f3ae3d" stroke-miterlimit="10" stroke-width="5"/>
      </g>
    </g>
  </g>
</svg>
