<?xml version="1.0" encoding="UTF-8" standalone="no"?>
<!DOCTYPE svg PUBLIC "-//W3C//DTD SVG 1.1//EN" "http://www.w3.org/Graphics/SVG/1.1/DTD/svg11.dtd">
<svg width="100%" height="100%" viewBox="0 0 314 95" version="1.1" xmlns="http://www.w3.org/2000/svg" xmlns:xlink="http://www.w3.org/1999/xlink" xml:space="preserve" xmlns:serif="http://www.serif.com/" style="fill-rule:evenodd;clip-rule:evenodd;stroke-linejoin:round;stroke-miterlimit:2;">
    <g transform="matrix(1,0,0,1,-60,-49)">
        <g>
            <path d="M130.7,61.9L126.8,61.9C126.5,61.9 121.3,61.7 116.3,58.4C110.1,54.4 103.7,54.2 103.4,54.2L82.1,54.2C79.6,54.2 77.6,56.2 77.6,58.7L77.6,62.7C74.8,61.8 72.7,59.4 72.1,56.5L71.3,52.3C71,50.7 69.6,49.6 68,49.6L64.9,49.6C62.4,49.6 60.4,51.6 60.4,54.1L60.4,104.4C60.4,106.9 62.4,108.9 64.9,108.9L68,108.9C69.6,108.9 71,107.8 71.3,106.2L72.1,102C72.7,99 74.9,96.7 77.6,95.8L77.6,99.8C77.6,102.3 79.6,104.3 82.1,104.3L103.4,104.3C103.7,104.3 110,104.1 116.2,100.1C121.3,96.8 126.7,96.6 126.7,96.6L130.7,96.6C132.5,96.6 134,95.1 134,93.3L134,65.3C134,63.4 132.5,61.9 130.7,61.9ZM67.8,101.1L67.1,104.4L64.9,104.4C64.8,104.4 64.8,54 64.8,54C64.8,53.9 64.9,53.9 64.9,53.9L67.1,53.9L67.8,57.2C69,63.1 74.2,67.4 80.2,67.4L82.7,67.4C79.6,70.3 77.6,74.5 77.6,79.2C77.6,83.8 79.6,88 82.7,91L80.2,91C74.2,90.9 69,95.2 67.8,101.1ZM105.5,79.2C105.5,85.7 100.2,91 93.7,91C87.2,91 82,85.7 82,79.2C82,72.7 87.3,67.4 93.8,67.4C100.3,67.4 105.5,72.7 105.5,79.2ZM105.4,68C107.3,68.6 109,69.6 110.4,71.1C112.6,73.4 113.8,76.3 113.8,79.4C113.7,84.6 110.2,89 105.4,90.4C108.2,87.5 110,83.5 110,79.1C109.9,74.9 108.2,70.9 105.4,68ZM129.7,92.2L126.7,92.2C126.4,92.2 120.1,92.4 113.9,96.4C108.8,99.7 103.4,99.9 103.4,99.9L82.1,99.9C82,99.9 82,99.8 82,99.8L82,95.5C82,95.4 82.1,95.4 82.1,95.4L102,95.4C110.7,95.4 118,88.3 118.1,79.6C118.2,75.3 116.5,71.2 113.5,68.1C110.4,64.9 106.1,63.1 101.7,63.1L82.1,63.1C82,63.1 82,63 82,63L82,58.7C82,58.6 82.1,58.6 82.1,58.6L103.3,58.6C103.4,58.6 108.7,58.8 113.8,62.1C120,66.1 126.4,66.3 126.6,66.3L129.6,66.3L129.6,92.2L129.7,92.2Z" style="fill:rgb(252,188,5);fill-rule:nonzero;"/>
            <g>
                <path d="M157.2,84.7L157.2,104.3L146,104.3L146,54.2L163,54.2C173.6,54.2 180.1,59.5 180.1,69.8C180.1,76.7 176,81.8 168.9,83.6L183.3,104.3L169.7,104.3L157.2,84.7ZM162.4,75.6C166.2,75.6 168.6,73.4 168.6,69.7C168.6,66 166.2,63.8 162.4,63.8L157.2,63.8L157.2,75.5L162.4,75.5L162.4,75.6Z" style="fill:rgb(252,188,5);fill-rule:nonzero;"/>
                <path d="M190.7,54.2L219.1,54.2L219.1,64.7L202,64.7L202,73.7L218.9,73.7L218.9,84.2L202,84.2L202,93.8L219.3,93.8L219.3,104.3L190.7,104.3L190.7,54.2Z" style="fill:rgb(252,188,5);fill-rule:nonzero;"/>
                <path d="M229.8,84.4L229.8,54.2L241.1,54.2L241.1,83.6C241.1,90.9 243.7,94.6 248.9,94.6C254.2,94.6 256.8,90.9 256.8,83.6L256.8,54.2L268.1,54.2L268.1,84.4C268.1,97.7 261,105.3 248.9,105.3C236.8,105.3 229.8,97.7 229.8,84.4Z" style="fill:rgb(252,188,5);fill-rule:nonzero;"/>
                <path d="M278.5,104.3L278.5,93.7C283,94.1 285.4,94.2 287.1,94.2C292.1,94.2 294.3,92.9 294.3,89.9C294.3,88 293.4,86.4 290,84.2L284.8,80.7C279.8,77.3 277.2,72.9 277.2,67.6C277.2,58.8 283.6,53.5 294.3,53.5C296.7,53.5 299.2,53.8 302,54.2L302,64.3C299.2,63.9 296.6,63.6 294.7,63.6C290.6,63.6 288.6,64.8 288.6,67.3C288.6,69 289.6,70.4 292.3,72.2L296.7,75.1C303,79.2 305.8,83.8 305.8,89.9C305.8,99.6 299.1,105.1 287.4,105.1C285.5,104.9 282.8,104.8 278.5,104.3Z" style="fill:rgb(252,188,5);fill-rule:nonzero;"/>
                <path d="M313.4,104.3L313.4,93.7C317.9,94.1 320.3,94.2 322,94.2C327,94.2 329.2,92.9 329.2,89.9C329.2,88 328.3,86.4 324.9,84.2L319.7,80.7C314.7,77.3 312.1,72.9 312.1,67.6C312.1,58.8 318.5,53.5 329.2,53.5C331.6,53.5 334.1,53.8 336.9,54.2L336.9,64.3C334.1,63.9 331.5,63.6 329.6,63.6C325.5,63.6 323.5,64.8 323.5,67.3C323.5,69 324.5,70.4 327.2,72.2L331.6,75.1C337.9,79.2 340.7,83.8 340.7,89.9C340.7,99.6 334,105.1 322.3,105.1C320.3,104.9 317.7,104.8 313.4,104.3Z" style="fill:rgb(252,188,5);fill-rule:nonzero;"/>
            </g>
            <g>
                <path d="M78.1,131.8C78.1,125 83.2,120.4 89.4,120.4C93.3,120.4 96,122.1 98,124.5L95.8,125.9C94.4,124.1 92.1,122.9 89.4,122.9C84.6,122.9 80.9,126.6 80.9,131.8C80.9,137 84.6,140.8 89.4,140.8C92,140.8 94.2,139.5 95.3,138.4L95.3,133.9L87.7,133.9L87.7,131.5L98,131.5L98,139.5C96,141.8 92.9,143.3 89.3,143.3C83.2,143.2 78.1,138.6 78.1,131.8Z" style="fill:rgb(137,148,137);fill-rule:nonzero;"/>
                <path d="M104.4,142.8L104.4,120.8L118.8,120.8L118.8,123.2L107.1,123.2L107.1,130.3L118.6,130.3L118.6,132.7L107.1,132.7L107.1,140.3L118.8,140.3L118.8,142.7L104.4,142.7L104.4,142.8Z" style="fill:rgb(137,148,137);fill-rule:nonzero;"/>
                <path d="M124.7,142.8L124.7,120.8L127.4,120.8L127.4,140.4L137.6,140.4L137.6,142.8L124.7,142.8Z" style="fill:rgb(137,148,137);fill-rule:nonzero;"/>
                <path d="M142.6,142.8L142.6,120.8L157,120.8L157,123.2L145.3,123.2L145.3,130.3L156.8,130.3L156.8,132.7L145.3,132.7L145.3,140.3L157,140.3L157,142.7L142.6,142.7L142.6,142.8Z" style="fill:rgb(137,148,137);fill-rule:nonzero;"/>
                <path d="M178.5,142.8L165.7,125.2L165.7,142.8L163,142.8L163,120.8L165.8,120.8L178.5,138L178.5,120.8L181.2,120.8L181.2,142.8L178.5,142.8Z" style="fill:rgb(137,148,137);fill-rule:nonzero;"/>
                <path d="M201.4,142.8L193,132.9L190.8,135.4L190.8,142.8L188.1,142.8L188.1,120.8L190.8,120.8L190.8,132.2L200.5,120.8L203.9,120.8L194.7,131.3L204.7,142.9L201.4,142.9L201.4,142.8Z" style="fill:rgb(137,148,137);fill-rule:nonzero;"/>
                <path d="M226.9,142.8L222,125L217.1,142.8L214.1,142.8L207.8,120.8L210.8,120.8L215.7,139.2L220.8,120.8L223.1,120.8L228.2,139.2L233.1,120.8L236.1,120.8L229.8,142.8L226.9,142.8Z" style="fill:rgb(137,148,137);fill-rule:nonzero;"/>
                <path d="M240.9,142.8L240.9,120.8L255.3,120.8L255.3,123.2L243.6,123.2L243.6,130.3L255.1,130.3L255.1,132.7L243.6,132.7L243.6,140.3L255.3,140.3L255.3,142.7L240.9,142.7L240.9,142.8Z" style="fill:rgb(137,148,137);fill-rule:nonzero;"/>
                <path d="M261.2,142.8L261.2,120.8L263.9,120.8L263.9,140.4L274.1,140.4L274.1,142.8L261.2,142.8Z" style="fill:rgb(137,148,137);fill-rule:nonzero;"/>
                <path d="M279.1,142.8L279.1,120.8L281.8,120.8L281.8,140.4L292,140.4L292,142.8L279.1,142.8Z" style="fill:rgb(137,148,137);fill-rule:nonzero;"/>
                <path d="M297.1,142.8L297.1,120.8L311.5,120.8L311.5,123.2L299.8,123.2L299.8,130.3L311.3,130.3L311.3,132.7L299.8,132.7L299.8,140.3L311.5,140.3L311.5,142.7L297.1,142.7L297.1,142.8Z" style="fill:rgb(137,148,137);fill-rule:nonzero;"/>
                <path d="M333,142.8L320.2,125.2L320.2,142.8L317.5,142.8L317.5,120.8L320.3,120.8L333,138L333,120.8L335.7,120.8L335.7,142.8L333,142.8Z" style="fill:rgb(137,148,137);fill-rule:nonzero;"/>
            </g>
            <g>
                <path d="M355.6,63.6L355.6,56L352.9,56L352.9,54.3L360.3,54.3L360.3,56L357.6,56L357.6,63.6L355.6,63.6Z" style="fill:rgb(252,188,5);fill-rule:nonzero;"/>
                <path d="M370.2,63.6L370.2,57.1L367.6,63.6L366.7,63.6L364.1,57.1L364.1,63.6L362.1,63.6L362.1,54.3L364.9,54.3L367.2,59.9L369.5,54.3L372.3,54.3L372.3,63.6L370.2,63.6Z" style="fill:rgb(252,188,5);fill-rule:nonzero;"/>
            </g>
        </g>
    </g>
</svg>
