<?xml version="1.0" encoding="utf-8"?>
<!-- Generator: Adobe Illustrator 27.7.0, SVG Export Plug-In . SVG Version: 6.00 Build 0)  -->
<svg version="1.1" id="Ebene_1" xmlns="http://www.w3.org/2000/svg" xmlns:xlink="http://www.w3.org/1999/xlink" x="0px" y="0px"
	 viewBox="0 0 1499.7 669.4" style="enable-background:new 0 0 1499.7 669.4;" xml:space="preserve">
<style type="text/css">
	.st0{clip-path:url(#SVGID_00000160884368105356829040000005475010241724536219_);}
	.st1{fill:none;stroke:#FFFFFF;stroke-width:8;}
	.st2{fill-rule:evenodd;clip-rule:evenodd;fill:#00417C;}
	.st3{fill-rule:evenodd;clip-rule:evenodd;fill:#FFFFFF;}
	.st4{fill-rule:evenodd;clip-rule:evenodd;fill:#E1394C;}
	.st5{fill-rule:evenodd;clip-rule:evenodd;fill:#FFD500;}
</style>
<g>
	<defs>
		<rect id="SVGID_1_" width="1499.7" height="669.4"/>
	</defs>
	<clipPath id="SVGID_00000026161600148366822760000016340039465478151861_">
		<use xlink:href="#SVGID_1_"  style="overflow:visible;"/>
	</clipPath>
	<g id="Gruppe_85" style="clip-path:url(#SVGID_00000026161600148366822760000016340039465478151861_);">
		<g id="Gruppe_80">
			<path id="Pfad_88" class="st1" d="M0.8,373.7c0,0,330.6-66.4,333.7,174s-466.2,61-202.2-207.9c264-269,651.2-320,651.2-320
				S1453-97.1,1506,381.3"/>
			<path id="Pfad_89" class="st1" d="M0.8,378.6c0,0,330.6-66.4,333.7,174s-466.2,61-202.2-207.9c264-269,651.2-320,651.2-320
				S1453-99.1,1506,379.3"/>
			<path id="Pfad_83" class="st2" d="M1323.7,72.9c8.3,6.1,18,10.2,28.1,12.1c16.8,3.1,38.9,0.2,60.6-23.6
				C1412.4,61.4,1379.5,41.7,1323.7,72.9"/>
			<path id="Pfad_85" class="st3" d="M1405.7,259.9c-13.8-15.8-26.2-32.6-37.2-50.4c-17.4-28.4-32.5-63.2-23.1-88.8
				C1345.3,120.8,1422.5,200.8,1405.7,259.9"/>
			<path id="Pfad_87" class="st4" d="M1292,92.1c8,12.2,14.5,25.3,19.6,39c8,22.2,12.4,49.7-1.9,71.2
				C1309.7,202.3,1263.8,132.5,1292,92.1"/>
			<path id="Pfad_86" class="st3" d="M1249.6,39.4c13.2,3.3,26.7,5.1,40.2,5.5c23.3,0.8,52.8-2.2,77.9-17.7
				C1367.7,27.3,1284.9,2.9,1249.6,39.4"/>
		</g>
		<path id="Pfad_84" class="st5" d="M1384.9,121.4c12.7,5.9,26,10.2,39.7,12.9c22.1,4.2,48.6,3.8,66.3-14.2
			C1491,120,1427.9,83.8,1384.9,121.4z"/>
	</g>
</g>
</svg>
