<?xml version="1.0" encoding="UTF-8"?><svg id="Ebene_1" xmlns="http://www.w3.org/2000/svg" viewBox="0 0 1499.66 669.4"><defs><style>.cls-1{fill:none;stroke:#fff;stroke-width:8px;}.cls-2{fill:#e1394c;}.cls-2,.cls-3,.cls-4,.cls-5{fill-rule:evenodd;}.cls-3{fill:#fff;}.cls-4{fill:#ffd500;}.cls-5{fill:#00417c;}</style></defs><g id="Gruppe_85"><g id="Gruppe_80"><path id="Pfad_88" class="cls-1" d="m.79,373.68s330.64-66.41,333.73,174.03-466.16,61.03-202.16-207.92C396.34,70.83,783.59,19.75,783.59,19.75c0,0,659.11-128.71,712.1,349.67"/><path id="Pfad_89" class="cls-1" d="m.79,378.63s330.64-66.41,333.73,174.03-466.16,61.03-202.16-207.92C396.34,75.78,783.59,24.7,783.59,24.7c0,0,659.11-128.71,712.1,349.67"/><path id="Pfad_83" class="cls-5" d="m1323.68,72.92c8.35,6.06,17.96,10.19,28.11,12.07,16.76,3.06,38.93.18,60.57-23.62,0,0-32.85-19.63-88.68,11.55"/><path id="Pfad_85" class="cls-3" d="m1405.65,259.91c-13.75-15.75-26.19-32.59-37.22-50.35-17.43-28.38-32.51-63.17-23.1-88.81,0,0,77.17,80.01,60.32,139.16"/><path id="Pfad_87" class="cls-2" d="m1292.01,92.12c7.99,12.2,14.54,25.27,19.55,38.96,7.99,22.16,12.41,49.7-1.87,71.17,0,0-45.9-69.79-17.67-110.14"/><path id="Pfad_86" class="cls-3" d="m1249.55,39.43c13.18,3.27,26.67,5.13,40.24,5.55,23.26.84,52.79-2.2,77.88-17.71,0,0-82.76-24.36-118.12,12.16"/></g><path id="Pfad_84" class="cls-4" d="m1384.93,121.36c12.66,5.88,25.98,10.2,39.68,12.86,22.06,4.17,48.57,3.84,66.35-14.22,0,0-63.08-36.2-106.03,1.36Z"/></g></svg>